# ProBuilder 5.1.1
# https://unity3d.com/unity/features/worldbuilding/probuilder
# 2024/01/28 15:26:51

mtllib ./StraightRoad.mtl
o StraightRoad

g StraightRoad
v 5 0 0
v -5 0 0
v 5 1 0
v -5 1 0
v -5 0 -10
v -5 1 -10
v 5 0 -10
v 5 1 -10

vt 5 0
vt -5 0
vt 5 1
vt -5 1
vt 0 0
vt -10 0
vt 0 1
vt -10 1
vt 10 0
vt 10 1
vt -5 -10
vt 5 -10

vn 0 0 1
vn -1 0 0
vn 0 0 -1
vn 1 0 0
vn 0 1 0
vn 0 -1 0

usemtl Lit
f 3/3/1 4/4/1 2/2/1 1/1/1
f 4/7/2 6/8/2 5/6/2 2/5/2
f 6/3/3 8/4/3 7/2/3 5/1/3
f 8/10/4 3/7/4 1/5/4 7/9/4
f 8/11/5 6/12/5 4/1/5 3/2/5
f 1/1/6 2/2/6 5/11/6 7/12/6

